<?xml version="1.0" encoding="utf-8"?>
<svg version="1.0" id="Layer_1" xmlns="http://www.w3.org/2000/svg" x="0px" y="0px" width="480px" height="120px" viewBox="0 0 480 120" style="enable-background:new 0 0 480 120">
  <style>
    .st0{fill:#383a35}
  </style>
  <path class="st0" d="M267.2 120H0V0h282.1l-14.9 120zM4.8 115.2H263L276.7 4.8H4.8v110.4z"/>
  <path class="st0" d="M218.5 62.1v-3.3h-.9c-.1 0-.3-.1-.3-.3V58c0-.1.1-.3.3-.3h3c.2 0 .3.1.3.3v.5c0 .2-.1.3-.3.3h-.9v3.3c0 .1-.1.3-.3.3h-.6c-.2 0-.3-.2-.3-.3m3-.1l.8-4.2c0-.1.1-.2.3-.2h.1c.1 0 .2.1.3.2l1.3 2.7 1.3-2.7c0-.1.1-.2.3-.2h.1c.1 0 .3.1.3.2l.8 4.2c0 .2-.1.3-.3.3h-.8c-.1 0-.3-.1-.3-.3l-.3-1.9-.9 2c0 .1-.1.1-.2.1h-.1c-.1 0-.2-.1-.3-.1l-.9-2-.4 1.9c0 .1-.2.2-.3.2h-.5c-.2.2-.3 0-.3-.2M59.5 47.4h-8.3a1 1 0 0 1-1-1v-4.5c0-.5.4-1 1-1H75c.6 0 1 .5 1 1v4.5c0 .5-.4 1-1 1h-8.3v30.8c0 .5-.5 1-1 1h-5.1c-.5 0-1-.5-1-1V47.4zM73 77.8l17-36.9c.2-.3.4-.6.9-.6h.5c.5 0 .8.3.9.6l16.8 36.9c.3.7-.1 1.4-.9 1.4h-4.7c-.8 0-1.2-.3-1.6-1.1l-2.7-5.9H82.9l-2.7 5.9c-.2.5-.7 1.1-1.6 1.1h-4.7c-.8 0-1.3-.7-.9-1.4zm23.5-11.7L91 54h-.2l-5.3 12.1h11zM129.2 40.3c5.5 0 9.5 1.8 13.2 5.1.5.4.5 1.1.1 1.5l-3.3 3.5c-.4.4-.9.4-1.4 0-2.3-2-5.3-3.2-8.4-3.2-7 0-12.2 5.9-12.2 12.8s5.2 12.7 12.2 12.7a13 13 0 0 0 8.3-3.1c.4-.4 1-.3 1.4 0l3.4 3.5c.4.4.3 1.1-.1 1.5-3.7 3.6-8.4 5.3-13.3 5.3-10.9 0-19.7-8.7-19.7-19.7.2-11.1 8.9-19.9 19.8-19.9zM155.3 47.4H147a1 1 0 0 1-1-1v-4.5c0-.5.4-1 1-1h23.8c.6 0 1 .5 1 1v4.5c0 .5-.4 1-1 1h-8.3v30.8c0 .5-.5 1-1 1h-5.1c-.5 0-1-.5-1-1V47.4zM176.9 41.9c0-.5.5-1 1-1h5.1c.5 0 1 .5 1 1v36.3c0 .5-.5 1-1 1h-5c-.5 0-1-.5-1-1V41.9z"/>
  <path class="st0" d="M209 40.3c5.5 0 9.5 1.8 13.2 5.1.5.4.5 1.1.1 1.5l-3.3 3.5c-.4.4-.9.4-1.4 0-2.3-2-5.3-3.2-8.4-3.2-7 0-12.2 5.9-12.2 12.8s5.2 12.7 12.2 12.7a13 13 0 0 0 8.3-3.1c.4-.4 1-.3 1.4 0l3.4 3.5c.4.4.3 1.1-.1 1.5-3.7 3.6-8.4 5.3-13.3 5.3-10.9 0-19.7-8.7-19.7-19.7.1-11.1 8.9-19.9 19.8-19.9z"/>
  <g>
    <path class="st0" d="M308 41.2c0-.2.2-.4.4-.4h5.9c2.5 0 4.5 2 4.5 4.4 0 1.9-1.2 3.4-3 4.2l2.8 5.2c.1.3 0 .6-.3.6H316c-.2 0-.3-.1-.3-.2l-2.7-5.5h-2.3v5.2c0 .2-.2.4-.4.4h-1.9c-.2 0-.4-.2-.4-.4V41.2zm6.1 6.1c1.1 0 2-.9 2-2.1a2 2 0 0 0-2-2h-3.3v4.1h3.3zM328.9 41.2c0-.2.2-.4.4-.4h8.3c.2 0 .4.2.4.4v1.7c0 .2-.2.4-.4.4h-6.1v3.4h5.1c.2 0 .4.2.4.4v1.7c0 .2-.2.4-.4.4h-5.1v3.6h6.1c.2 0 .4.2.4.4v1.7c0 .2-.2.4-.4.4h-8.3c-.2 0-.4-.2-.4-.4V41.2zM346.2 54.6l6.4-13.8c.1-.1.2-.2.3-.2h.2c.2 0 .3.1.3.2l6.3 13.8c.1.3 0 .5-.3.5h-1.8c-.3 0-.5-.1-.6-.4l-1-2.2h-6.1l-1 2.2c-.1.2-.3.4-.6.4h-1.8c-.2.1-.4-.2-.3-.5zm8.9-4.3l-2-4.5h-.1l-2 4.5h4.1zM368.8 41.2c0-.2.2-.4.4-.4h1.9c.2 0 .4.2.4.4v11.5h5.2c.2 0 .4.2.4.4v1.7c0 .2-.2.4-.4.4h-7.5c-.2 0-.4-.2-.4-.4V41.2zM391.5 48.9v-1.4c0-.2.2-.4.5-.4h6.2c.3 0 .5.2.5.4v1.4c0 .2-.2.4-.5.4H392c-.3 0-.5-.2-.5-.4zM416.3 43.3h-3.1c-.2 0-.4-.2-.4-.4v-1.7c0-.2.2-.4.4-.4h8.9c.2 0 .4.2.4.4v1.7c0 .2-.2.4-.4.4H419v11.5c0 .2-.2.4-.4.4h-1.9c-.2 0-.4-.2-.4-.4V43.3zM431.8 41.2c0-.2.2-.4.4-.4h1.9c.2 0 .4.2.4.4v13.6c0 .2-.2.4-.4.4h-1.9c-.2 0-.4-.2-.4-.4V41.2zM447.1 40.9c0-.2.1-.3.4-.3h.3c.2 0 .3.1.3.2l4.5 9.7h.1l4.5-9.7c.1-.1.2-.2.3-.2h.3c.2 0 .3.1.4.3l2.4 13.8c.1.3-.1.5-.4.5h-1.9c-.2 0-.3-.2-.4-.3l-1.2-7.8h-.1l-3.6 8.1c0 .1-.2.2-.3.2h-.4c-.2 0-.3-.1-.3-.2l-3.6-8.1h-.1l-1.2 7.8c0 .1-.2.3-.4.3h-1.8c-.3 0-.4-.2-.4-.5l2.6-13.8zM470.9 41.2c0-.2.2-.4.4-.4h8.3c.2 0 .4.2.4.4v1.7c0 .2-.2.4-.4.4h-6.1v3.4h5.1c.2 0 .4.2.4.4v1.7c0 .2-.2.4-.4.4h-5.1v3.6h6.1c.2 0 .4.2.4.4v1.7c0 .2-.2.4-.4.4h-8.3c-.2 0-.4-.2-.4-.4V41.2zM309.5 64.9c0-.2.1-.3.4-.3h.3c.2 0 .3.1.3.2l4.5 9.7h.1l4.5-9.7c.1-.1.2-.2.3-.2h.3c.2 0 .3.1.4.3l2.4 13.8c.1.3-.1.5-.4.5h-1.9c-.2 0-.3-.2-.4-.3l-1.2-7.8h-.1l-3.6 8.1c0 .1-.2.2-.3.2h-.4c-.2 0-.3-.1-.3-.2l-3.6-8.1h-.1l-1.2 7.8c0 .1-.2.3-.4.3h-1.8c-.3 0-.4-.2-.4-.5l2.6-13.8zM331.2 78.6l6.4-13.8c.1-.1.2-.2.3-.2h.2c.2 0 .3.1.3.2l6.3 13.8c.1.3 0 .5-.3.5h-1.8c-.3 0-.5-.1-.6-.4l-1-2.2h-6l-1 2.2c-.1.2-.3.4-.6.4h-1.8c-.3.1-.5-.2-.4-.5zm8.9-4.3l-2-4.5h-.1l-2 4.5h4.1zM353.9 65.2c0-.2.2-.4.4-.4h5.9c2.5 0 4.5 2 4.5 4.4 0 1.9-1.2 3.4-3 4.2l2.8 5.2c.1.3 0 .6-.3.6h-2.1c-.2 0-.3-.1-.3-.2l-2.7-5.5h-2.3v5.2c0 .2-.2.4-.4.4h-1.9c-.2 0-.4-.2-.4-.4V65.2zm6 6.1c1.1 0 2-.9 2-2.1a2 2 0 0 0-2-2h-3.3v4.1h3.3zM374.7 65.3c0-.3.2-.5.5-.5h1.8c.3 0 .5.2.5.5v5.6l5.2-5.8c.1-.1.2-.2.4-.2h2c.4 0 .6.4.3.7l-5.3 6 5.7 6.9c.2.3 0 .7-.4.7h-2.2c-.2 0-.3-.1-.4-.1l-5.3-6.6v6.3c0 .3-.2.5-.5.5h-1.8c-.3 0-.5-.2-.5-.5V65.3zM395.2 65.2c0-.2.2-.4.4-.4h8.3c.2 0 .4.2.4.4v1.7c0 .2-.2.4-.4.4h-6.1v3.4h5.1c.2 0 .4.2.4.4v1.7c0 .2-.2.4-.4.4h-5.1v3.6h6.1c.2 0 .4.2.4.4v1.7c0 .2-.2.4-.4.4h-8.3c-.2 0-.4-.2-.4-.4V65.2zM416.3 67.3h-3.1c-.2 0-.4-.2-.4-.4v-1.7c0-.2.2-.4.4-.4h8.9c.2 0 .4.2.4.4v1.7c0 .2-.2.4-.4.4H419v11.5c0 .2-.2.4-.4.4h-1.9c-.2 0-.4-.2-.4-.4V67.3zM431.8 65.2c0-.2.2-.4.4-.4h1.9c.2 0 .4.2.4.4v13.6c0 .2-.2.4-.4.4h-1.9c-.2 0-.4-.2-.4-.4V65.2zM445.4 64.9c0-.2.2-.4.4-.4h.5l8.5 9.1v-8.5c0-.2.2-.4.4-.4h1.9c.2 0 .4.2.4.4V79c0 .2-.2.4-.4.4h-.5L448 70v8.8c0 .2-.2.4-.4.4h-1.9c-.2 0-.4-.2-.4-.4V64.9zM474.8 64.6c1.8 0 3.6.7 5 1.9.2.2.2.4 0 .6l-1.3 1.3c-.2.2-.3.2-.5 0-.9-.8-2-1.2-3.1-1.2a4.7 4.7 0 0 0-4.6 4.8c0 2.5 2 4.7 4.6 4.7 1.1 0 2-.3 2.4-.5v-1.7h-1.6c-.2 0-.4-.2-.4-.4v-1.6c0-.2.2-.4.4-.4h3.9c.2 0 .4.2.4.4v5.3c0 .2-.1.3-.2.3 0 0-2.1 1.3-5.1 1.3-4.1 0-7.3-3.2-7.3-7.4 0-4.1 3.3-7.4 7.4-7.4z"/>
  </g>
</svg>
